<svg xmlns="http://www.w3.org/2000/svg" viewBox="0 0 777 777"><rect width="777" height="777" style="fill:none"/><path d="M263.35,182.25a42.66,42.66,0,0,0-42.6,42.62V552.14a42.66,42.66,0,0,0,42.6,42.61H513.6a42.67,42.67,0,0,0,42.6-42.61V283a35.29,35.29,0,0,0-2.75-15.55A43.14,43.14,0,0,0,545,255.29l0,0-62.09-60.9-.1-.11a49.32,49.32,0,0,0-13.16-8.42,48.08,48.08,0,0,0-18.79-3.55H263.35Z" style="fill:#7a7a7a"/><path d="M263.35,196.25H451.12s7.51.07,13,2.43a35.57,35.57,0,0,1,9.06,5.72l0,0,61.94,60.76a34.18,34.18,0,0,1,5.54,8c1.46,3.27,1.55,9.26,1.55,9.26s0,.19,0,.29V552.14a28.39,28.39,0,0,1-28.6,28.61H263.35a28.39,28.39,0,0,1-28.61-28.61V224.87a28.39,28.39,0,0,1,28.61-28.62Z" style="fill:#f5f5f5"/><path d="M379.44,308.79a89.72,89.72,0,0,0-32.11,6A13.39,13.39,0,0,1,329.87,307h0a13,13,0,0,1,7.45-16.57,134.79,134.79,0,0,1,14.94-4.78,124.57,124.57,0,0,1,31.33-3.81q19.74,0,32.37,5.37t20.25,13.67a46.28,46.28,0,0,1,10.56,18.52,71.06,71.06,0,0,1,2.94,19.56,47,47,0,0,1-4.5,20.94A87.61,87.61,0,0,1,434.13,377a150.5,150.5,0,0,1-14.54,15.23,160.19,160.19,0,0,0-14.54,15,82.87,82.87,0,0,0-11.08,17c-3,6.11-4.5,8.51-4.5,16.12v0a12.05,12.05,0,0,1-12.05,12.05h-1.33a14.57,14.57,0,0,1-14.65-14.39v-.15a49.07,49.07,0,0,1,4-20.08A76.15,76.15,0,0,1,375.63,401a157.9,157.9,0,0,1,13.15-14.53q6.93-6.76,13.16-13.68a70.89,70.89,0,0,0,10.21-14.54,35.33,35.33,0,0,0,4-16.61q0-14.54-9.35-23.71T379.44,308.79Z" style="fill:#7a7a7a"/><path d="M396.17,487.88a18.35,18.35,0,0,1-4.87,12.71Q386.44,506,378.05,506t-13.25-5.41a19,19,0,0,1,0-25.42q4.88-5.4,13.25-5.41t13.25,5.41A18.37,18.37,0,0,1,396.17,487.88Z" style="fill:#7a7a7a"/></svg>