<svg xmlns="http://www.w3.org/2000/svg" viewBox="0 0 777 777"><circle cx="388.5" cy="387.9" r="206.7" style="fill:#fff"/><path d="M480.93,540.61a9.85,9.85,0,0,1-9.83-9.83V518.49a9.85,9.85,0,0,1,9.83-9.83h35.23a9.86,9.86,0,0,1,9.83,9.83v1.86a190.49,190.49,0,0,0,7.28-255.67,9.77,9.77,0,0,1-6.47,2.46H491.57a9.85,9.85,0,0,1-9.83-9.83V245a9.86,9.86,0,0,1,9.83-9.83h10a190.51,190.51,0,0,0-226.16,0h12.71A9.86,9.86,0,0,1,298,245v12.29a9.85,9.85,0,0,1-9.83,9.83H252.9a9.81,9.81,0,0,1-7.86-4,190.49,190.49,0,0,0-4.26,245.62,9.15,9.15,0,0,1,1.48-.13h35.23a9.85,9.85,0,0,1,9.83,9.83v12.29a9.85,9.85,0,0,1-9.83,9.83h-3.68a190.51,190.51,0,0,0,229.38,0Zm-113.22-9.83a9.86,9.86,0,0,1-9.83,9.83H322.65a9.85,9.85,0,0,1-9.83-9.83V518.49a9.85,9.85,0,0,1,9.83-9.83h35.23a9.86,9.86,0,0,1,9.83,9.83Zm10.64-273.47a9.86,9.86,0,0,1-9.83,9.83H333.29a9.85,9.85,0,0,1-9.83-9.83V245a9.86,9.86,0,0,1,9.83-9.83h35.23a9.87,9.87,0,0,1,9.83,9.83Zm65.52,273.47a9.85,9.85,0,0,1-9.83,9.83H398.82a9.85,9.85,0,0,1-9.83-9.83V518.49a9.85,9.85,0,0,1,9.83-9.83H434a9.85,9.85,0,0,1,9.83,9.83Zm10.64-273.47a9.85,9.85,0,0,1-9.83,9.83H409.46a9.85,9.85,0,0,1-9.83-9.83V245a9.86,9.86,0,0,1,9.83-9.83h35.22a9.86,9.86,0,0,1,9.83,9.83Z" style="fill:#4f4544"/><rect width="777" height="777" style="fill:none"/><path d="M465.89,379,350.25,312.26a10.25,10.25,0,0,0-15.38,8.88V454.67a10.26,10.26,0,0,0,15.38,8.88l115.64-66.77A10.26,10.26,0,0,0,465.89,379Z" style="fill:#fff"/></svg>