<svg xmlns="http://www.w3.org/2000/svg" viewBox="0 0 777 777"><rect width="777" height="777" style="fill:none"/><path d="M263.35,182.25a42.66,42.66,0,0,0-42.6,42.62V552.14a42.66,42.66,0,0,0,42.6,42.61H513.6a42.67,42.67,0,0,0,42.6-42.61V283a35.29,35.29,0,0,0-2.75-15.55A43.14,43.14,0,0,0,545,255.29l0,0-62.09-60.9-.1-.11a49.32,49.32,0,0,0-13.16-8.42,48.08,48.08,0,0,0-18.79-3.55H263.35Z" style="fill:#fff"/><path d="M263.35,196.25H451.12s7.51.07,13,2.43a35.57,35.57,0,0,1,9.06,5.72l0,0,61.94,60.76a34.18,34.18,0,0,1,5.54,8c1.46,3.27,1.55,9.26,1.55,9.26s0,.19,0,.29V552.14a28.39,28.39,0,0,1-28.6,28.61H263.35a28.39,28.39,0,0,1-28.61-28.61V224.87a28.39,28.39,0,0,1,28.61-28.62Z" style="fill:#207245"/><path d="M413.89,310.63c12-.85,24.12-1.59,36.2-2.18q-21.31,43.68-43,87.25c14.64,29.81,29.6,59.41,44.29,89.22-12.83-.74-25.6-1.54-38.43-2.45-9.05-22.19-20.07-43.65-26.57-66.86-7.24,21.61-17.56,42-25.87,63.19-11.66-.16-23.32-.64-35-1.12,13.68-26.77,26.88-53.76,41-80.38-12-27.42-25.13-54.3-37.48-81.56q17.57-1,35.13-2c7.94,20.81,16.61,41.36,23.16,62.71C394.41,353.81,404.9,332.51,413.89,310.63Z" style="fill:#fff"/></svg>