<svg xmlns="http://www.w3.org/2000/svg" viewBox="0 0 777 777"><rect width="777" height="777" style="fill:none"/><path d="M263.35,182.25a42.66,42.66,0,0,0-42.6,42.62V552.14a42.66,42.66,0,0,0,42.6,42.61H513.6a42.67,42.67,0,0,0,42.6-42.61V283a35.29,35.29,0,0,0-2.75-15.55A43.14,43.14,0,0,0,545,255.29l0,0-62.09-60.9-.1-.11a49.32,49.32,0,0,0-13.16-8.42,48.08,48.08,0,0,0-18.79-3.55H263.35Z" style="fill:#ff2116"/><path d="M263.35,196.25H451.12s7.51.07,13,2.43a35.57,35.57,0,0,1,9.06,5.72l0,0,61.94,60.76a34.18,34.18,0,0,1,5.54,8c1.46,3.27,1.55,9.26,1.55,9.26s0,.19,0,.29V552.14a28.39,28.39,0,0,1-28.6,28.61H263.35a28.39,28.39,0,0,1-28.61-28.61V224.87a28.39,28.39,0,0,1,28.61-28.62Z" style="fill:#f5f5f5"/><path d="M291.7,478.55c-11.1-11.1.91-26.35,33.5-42.55l20.51-10.19,8-17.48c4.39-9.61,10.95-25.3,14.57-34.86l6.59-17.38-4.54-12.86c-5.58-15.81-7.57-39.58-4-48.12,4.8-11.58,20.5-10.39,26.72,2,4.85,9.69,4.36,27.24-1.4,49.37l-4.72,18.14,4.16,7.06a244.66,244.66,0,0,0,14.84,20.48l11,13.73,13.74-1.79c43.66-5.69,58.61,4,58.61,17.87,0,17.52-34.28,19-63.06-1.25a87.45,87.45,0,0,1-10.93-9.07s-18,3.67-26.91,6.06c-9.16,2.47-13.73,4-27.16,8.55,0,0-4.71,6.84-7.78,11.81-11.42,18.5-24.75,33.84-34.27,39.42C308.51,483.75,297.33,484.18,291.7,478.55Zm17.42-6.22c6.24-3.86,18.87-18.79,27.61-32.65l3.54-5.62-16.11,8.11c-24.89,12.51-36.28,24.3-30.36,31.44,3.33,4,7.31,3.68,15.32-1.28ZM470.8,427c6.1-4.28,5.22-12.89-1.68-16.36-5.37-2.71-9.7-3.26-23.65-3.06-8.57.59-22.35,2.32-24.69,2.84,0,0,7.57,5.23,10.94,7.16A145.61,145.61,0,0,0,455,427.26c7.83,2.4,12.36,2.14,15.79-.31Zm-65-27a159.6,159.6,0,0,1-14-18A100,100,0,0,1,384,370.27s-3.81,12.25-6.93,19.61L367.34,414l-2.82,5.46s15-4.92,22.66-6.92c8.09-2.11,24.52-5.34,24.52-5.34Zm-21-84c1-7.9,1.34-15.8-1.2-19.78-7-7.7-15.54-1.27-14.1,17,.48,6.16,2,16.69,4.06,23.18l3.72,11.8,2.62-8.89a236.19,236.19,0,0,0,4.9-23.35Z" style="fill:#ff2116"/></svg>