<svg xmlns="http://www.w3.org/2000/svg" viewBox="0 0 777 777"><circle cx="388.5" cy="387.9" r="206.7" style="fill:#fff"/><rect width="777" height="777" style="fill:none"/><path d="M388.5,198C283.29,198,198,283.29,198,388.5S283.29,579,388.5,579,579,493.71,579,388.5,493.71,198,388.5,198Zm70.84,231.94c0,19.47-15.66,35.64-35.13,35.57a35,35,0,1,1,11.8-68v-59.1a3,3,0,0,0-3.87-2.92l-72.79,20.79a6.91,6.91,0,0,0-5,6.65V459.1c0,19.48-15.66,35.64-35.13,35.57a35,35,0,1,1,11.79-68V322.47a7.67,7.67,0,0,1,5.61-7.38L454,282.48a4.2,4.2,0,0,1,5.32,4Z" style="fill:#2abff4"/></svg>