<svg xmlns="http://www.w3.org/2000/svg" viewBox="0 0 777 777"><rect width="777" height="777" style="fill:none"/><rect x="158.99" y="209.29" width="459.03" height="358.43" rx="23.78" style="fill:#fff"/><path d="M596.81,221.31H181a10.14,10.14,0,0,0-10.12,10.12V545.57A10.14,10.14,0,0,0,181,555.69H596.81a10.14,10.14,0,0,0,10.12-10.12V231.43A10.14,10.14,0,0,0,596.81,221.31ZM234,508.46a8.31,8.31,0,0,1-8.29,8.29H196a8.31,8.31,0,0,1-8.29-8.29V498.1a8.31,8.31,0,0,1,8.29-8.29h29.7A8.31,8.31,0,0,1,234,498.1Zm9-230.57a8.31,8.31,0,0,1-8.29,8.29h-29.7a8.31,8.31,0,0,1-8.29-8.29V267.53a8.31,8.31,0,0,1,8.29-8.29h29.7a8.31,8.31,0,0,1,8.29,8.29Zm60.26,230.57a8.31,8.31,0,0,1-8.29,8.29H265.2a8.31,8.31,0,0,1-8.29-8.29V498.1a8.31,8.31,0,0,1,8.29-8.29h29.7a8.31,8.31,0,0,1,8.29,8.29Zm9-230.57a8.31,8.31,0,0,1-8.29,8.29h-29.7a8.31,8.31,0,0,1-8.29-8.29V267.53a8.31,8.31,0,0,1,8.29-8.29h29.7a8.31,8.31,0,0,1,8.29,8.29ZM371,508.46a8.31,8.31,0,0,1-8.28,8.29H333a8.31,8.31,0,0,1-8.28-8.29V498.1a8.31,8.31,0,0,1,8.28-8.29h29.71A8.31,8.31,0,0,1,371,498.1Zm9-230.57a8.31,8.31,0,0,1-8.28,8.29H342a8.31,8.31,0,0,1-8.29-8.29V267.53a8.31,8.31,0,0,1,8.29-8.29h29.7a8.31,8.31,0,0,1,8.28,8.29Zm55.25,230.57a8.31,8.31,0,0,1-8.29,8.29h-29.7a8.31,8.31,0,0,1-8.28-8.29V498.1a8.31,8.31,0,0,1,8.28-8.29h29.7a8.31,8.31,0,0,1,8.29,8.29Zm9-230.57a8.31,8.31,0,0,1-8.28,8.29h-29.7a8.31,8.31,0,0,1-8.29-8.29V267.53a8.31,8.31,0,0,1,8.29-8.29h29.7a8.31,8.31,0,0,1,8.28,8.29Zm60.27,230.57a8.31,8.31,0,0,1-8.29,8.29h-29.7a8.31,8.31,0,0,1-8.29-8.29V498.1a8.31,8.31,0,0,1,8.29-8.29h29.7a8.31,8.31,0,0,1,8.29,8.29Zm9-230.57a8.31,8.31,0,0,1-8.29,8.29H475.4a8.31,8.31,0,0,1-8.29-8.29V267.53a8.31,8.31,0,0,1,8.29-8.29h29.7a8.31,8.31,0,0,1,8.29,8.29Zm58.8,230.57a8.31,8.31,0,0,1-8.29,8.29H534.2a8.31,8.31,0,0,1-8.29-8.29V498.1a8.31,8.31,0,0,1,8.29-8.29h29.7a8.31,8.31,0,0,1,8.29,8.29Zm9-230.57a8.31,8.31,0,0,1-8.29,8.29h-29.7a8.31,8.31,0,0,1-8.29-8.29V267.53a8.31,8.31,0,0,1,8.29-8.29h29.7a8.31,8.31,0,0,1,8.29,8.29Z" transform="translate(0)" style="fill:#474343"/><path d="M439.72,382.58l-77-44.48A6.83,6.83,0,0,0,352.43,344v89a6.83,6.83,0,0,0,10.25,5.92l77-44.48A6.83,6.83,0,0,0,439.72,382.58Z" transform="translate(0)" style="fill:#fff"/></svg>