<svg xmlns="http://www.w3.org/2000/svg" viewBox="0 0 777 777"><rect width="777" height="777" style="fill:none"/><path d="M263.35,182.25a42.66,42.66,0,0,0-42.6,42.62V552.14a42.66,42.66,0,0,0,42.6,42.61H513.6a42.67,42.67,0,0,0,42.6-42.61V283a35.29,35.29,0,0,0-2.75-15.55A43.14,43.14,0,0,0,545,255.29l0,0-62.09-60.9-.1-.11a49.32,49.32,0,0,0-13.16-8.42,48.08,48.08,0,0,0-18.79-3.55H263.35Z" style="fill:#195abc"/><path d="M263.35,196.25H451.12s7.51.07,13,2.43a35.57,35.57,0,0,1,9.06,5.72l0,0,61.94,60.76a34.18,34.18,0,0,1,5.54,8c1.46,3.27,1.55,9.26,1.55,9.26s0,.19,0,.29V552.14a28.39,28.39,0,0,1-28.6,28.61H263.35a28.39,28.39,0,0,1-28.61-28.61V224.87a28.39,28.39,0,0,1,28.61-28.62Z" style="fill:#f5f5f5"/><path d="M292,308.45l36,176.47h35.42l23.31-113a159.42,159.42,0,0,0,2.66-20.07h.29a123.44,123.44,0,0,0,2.07,20.07l22.72,113H448.7L485,308.45H453.72L434.83,426.2A158.84,158.84,0,0,0,432.77,446h-.3c-.63-8.3-1.25-14.53-2.06-18.89L408,308.45H374.93L350.14,425.61a125.14,125.14,0,0,0-2.95,20.65h-.6a174.94,174.94,0,0,0-1.77-20.36L325.64,308.45Z" style="fill:#195abc"/></svg>