<svg xmlns="http://www.w3.org/2000/svg" viewBox="0 0 777 777"><rect width="777" height="777" style="fill:none"/><path d="M263.35,182.25a42.66,42.66,0,0,0-42.6,42.62V552.14a42.66,42.66,0,0,0,42.6,42.61H513.6a42.67,42.67,0,0,0,42.6-42.61V283a35.29,35.29,0,0,0-2.75-15.55A43.14,43.14,0,0,0,545,255.29l0,0-62.09-60.9-.1-.11a49.32,49.32,0,0,0-13.16-8.42,48.08,48.08,0,0,0-18.79-3.55H263.35Z" style="fill:#fff"/><path d="M263.35,196.25H451.12s7.51.07,13,2.43a35.57,35.57,0,0,1,9.06,5.72l0,0,61.94,60.76a34.18,34.18,0,0,1,5.54,8c1.46,3.27,1.55,9.26,1.55,9.26s0,.19,0,.29V552.14a28.39,28.39,0,0,1-28.6,28.61H263.35a28.39,28.39,0,0,1-28.61-28.61V224.87a28.39,28.39,0,0,1,28.61-28.62Z" style="fill:#6f3789"/><rect x="355" y="531" width="54" height="11.33" rx="5.67" style="fill:#fff"/><rect x="355" y="552.67" width="54" height="11.33" rx="5.67" style="fill:#fff"/><rect x="355" y="509.33" width="54" height="11.33" rx="5.67" style="fill:#fff"/><rect x="355" y="487.67" width="54" height="11.33" rx="5.67" style="fill:#fff"/><rect x="355" y="466" width="54" height="11.33" rx="5.67" style="fill:#fff"/><rect x="355" y="444.33" width="54" height="11.33" rx="5.67" style="fill:#fff"/><rect x="353.33" y="401" width="54" height="11.33" rx="5.67" style="fill:#fff"/><rect x="353.33" y="422.67" width="54" height="11.33" rx="5.67" style="fill:#fff"/><rect x="353.33" y="379.33" width="54" height="11.33" rx="5.67" style="fill:#fff"/><rect x="353.33" y="357.67" width="54" height="11.33" rx="5.67" style="fill:#fff"/><rect x="353.33" y="336" width="54" height="11.33" rx="5.67" style="fill:#fff"/><rect x="353.33" y="314.33" width="54" height="11.33" rx="5.67" style="fill:#fff"/><path d="M406.84,216h-53a11,11,0,0,0-11,11V290a11,11,0,0,0,11,11h53a11,11,0,0,0,11-11V227A11,11,0,0,0,406.84,216Zm.24,35.17a12,12,0,0,1-12,12h-29.5a12,12,0,0,1-12-12v-13a12,12,0,0,1,12-12h29.5a12,12,0,0,1,12,12Z" style="fill:#fff"/></svg>