<svg xmlns="http://www.w3.org/2000/svg" viewBox="0 0 777 777"><rect width="777" height="777" style="fill:none"/><rect x="158.99" y="209.29" width="459.03" height="358.43" rx="23.78" style="fill:#fff"/><path d="M596.81,221.31H181a10.14,10.14,0,0,0-10.12,10.12V545.57A10.14,10.14,0,0,0,181,555.69H596.81a10.14,10.14,0,0,0,10.12-10.12V231.43A10.14,10.14,0,0,0,596.81,221.31Z" style="fill:#191919"/><path d="M379.05,411.52q-1.59,21.94-16.2,34.54t-38.52,12.61q-26.15,0-41.12-17.6t-15-48.32v-8.31q0-19.6,6.91-34.54T294.88,327q12.83-8,29.83-8,23.52,0,37.9,12.61T379.23,367h-28q-1-13.16-7.33-19.09T324.71,342q-14,0-21,10t-7.15,31.13v10.28q0,22,6.68,32.21t21.05,10.17q13,0,19.38-5.93T351,411.52Z" style="fill:#b5ff00"/><path d="M397,367.08a13.6,13.6,0,0,1,4.34-10.46,16.86,16.86,0,0,1,21.85,0,13.57,13.57,0,0,1,4.34,10.46,13.39,13.39,0,0,1-4.29,10.31,15.6,15.6,0,0,1-11,4,15.43,15.43,0,0,1-10.92-4A13.36,13.36,0,0,1,397,367.08Zm0,76.46a13.58,13.58,0,0,1,4.34-10.45,16.86,16.86,0,0,1,21.85,0,13.55,13.55,0,0,1,4.34,10.45,13.41,13.41,0,0,1-4.29,10.32,15.6,15.6,0,0,1-11,4,15.43,15.43,0,0,1-10.92-4A13.38,13.38,0,0,1,397,443.54Z" style="fill:#b5ff00"/><path d="M439.27,320.86h27.54l56.77,147.61H495.94Z" style="fill:#b5ff00"/></svg>