<svg id="Слой_1" data-name="Слой 1" xmlns="http://www.w3.org/2000/svg" viewBox="0 0 233.25 233.25"><defs><style>.cls-1{fill:#564c44;}</style></defs><title>logo</title><path class="cls-1" d="M250.31,133.38c-1.63,0-3.25,0-4.87.11A112.71,112.71,0,0,0,247.18,178c6.09,24.94,16.07,49.17,26.47,72.77,15.52,35.21,24.37,70.68,21.06,107.13a116.63,116.63,0,0,0-44.4-224.48Z" transform="translate(-133.69 -133.38)"/><path class="cls-1" d="M254.61,366.54c0-.07,0-.13,0-.2,7.12-39.29-3.54-75.28-21.28-109.75-19-36.9-30.46-74.6-27.76-114.33a116.64,116.64,0,0,0,44.7,224.36C251.75,366.62,253.18,366.59,254.61,366.54Z" transform="translate(-133.69 -133.38)"/></svg>